<svg width="46" height="48" viewBox="0 0 46 48" fill="none" xmlns="http://www.w3.org/2000/svg">
<path d="M45.3547 10.6268C44.6533 5.46936 40.1092 1.40497 34.7225 0.617404C33.8137 0.484323 30.3703 0 22.3939 0H22.3343C14.3558 0 12.644 0.484323 11.7352 0.617404C6.49846 1.38316 1.71617 5.03521 0.555881 10.2537C-0.00220211 12.8236 -0.0617605 15.6729 0.0419152 18.2865C0.189708 22.0345 0.218384 25.776 0.562499 29.5088C0.800394 31.9883 1.2154 34.4481 1.8044 36.8696C2.90733 41.342 7.372 45.0638 11.7462 46.5823C16.4295 48.1658 21.4659 48.4286 26.2917 47.3415C26.8225 47.2193 27.3476 47.0775 27.8666 46.9161C29.038 46.5474 30.4122 46.135 31.4225 45.4107C31.4364 45.4005 31.4478 45.3874 31.4558 45.3723C31.4638 45.3572 31.4682 45.3405 31.4688 45.3234V41.7063C31.4686 41.6904 31.4647 41.6747 31.4576 41.6604C31.4504 41.6461 31.4401 41.6336 31.4274 41.6238C31.4147 41.614 31.3999 41.6071 31.3842 41.6036C31.3685 41.6001 31.3522 41.6002 31.3365 41.6037C28.2447 42.3342 25.0764 42.7004 21.8976 42.6946C16.4271 42.6946 14.9558 40.1268 14.5344 39.0578C14.1958 38.1339 13.9807 37.1702 13.8947 36.1911C13.8938 36.1747 13.8969 36.1583 13.9036 36.1432C13.9103 36.1282 13.9206 36.1149 13.9335 36.1045C13.9464 36.0941 13.9616 36.0868 13.9778 36.0833C13.9941 36.0797 14.011 36.0801 14.0271 36.0842C17.0674 36.8097 20.184 37.1759 23.3116 37.1751C24.0638 37.1751 24.8137 37.1751 25.566 37.1554C28.7115 37.0682 32.0269 36.9089 35.1217 36.3111C35.199 36.2959 35.2761 36.2828 35.3423 36.2631C40.2239 35.3359 44.8694 32.4257 45.3415 25.0561C45.3591 24.7659 45.4033 22.017 45.4033 21.716C45.4055 20.6928 45.7364 14.4577 45.3547 10.6268ZM37.8415 29.0157H32.7086V16.5804C32.7086 13.9625 31.6056 12.6273 29.3622 12.6273C26.8961 12.6273 25.6608 14.2068 25.6608 17.3265V24.1332H20.5586V17.3265C20.5586 14.2068 19.3212 12.6273 16.855 12.6273C14.6249 12.6273 13.5109 13.9625 13.5087 16.5804V29.0157H8.38006V16.203C8.38006 13.585 9.05582 11.5052 10.4073 9.9635C11.8014 8.42547 13.63 7.63574 15.8999 7.63574C18.527 7.63574 20.5123 8.63488 21.8358 10.6311L23.113 12.7517L24.3924 10.6311C25.7159 8.63488 27.7012 7.63574 30.324 7.63574C32.5916 7.63574 34.4202 8.42547 35.8188 9.9635C37.1703 11.5037 37.846 13.5836 37.846 16.203L37.8415 29.0157Z" fill="#FDFDE6"/>
</svg>
