<svg width="25" height="24" viewBox="0 0 25 24" fill="none" xmlns="http://www.w3.org/2000/svg">
<path d="M18.4614 11.1235C18.358 11.074 18.253 11.0263 18.1467 10.9806C17.9614 7.56728 16.0963 5.61312 12.9645 5.59312C12.9503 5.59304 12.9362 5.59304 12.922 5.59304C11.0488 5.59304 9.49092 6.39261 8.53204 7.84759L10.2544 9.0291C10.9707 7.94229 12.0949 7.7106 12.9229 7.7106C12.9324 7.7106 12.942 7.7106 12.9515 7.71069C13.9827 7.71726 14.7608 8.01708 15.2644 8.60175C15.6309 9.02741 15.876 9.61563 15.9974 10.358C15.0832 10.2026 14.0944 10.1548 13.0374 10.2154C10.0599 10.3869 8.14567 12.1235 8.27424 14.5365C8.33947 15.7605 8.94925 16.8135 9.99116 17.5014C10.8721 18.0829 12.0067 18.3673 13.1858 18.3029C14.743 18.2175 15.9647 17.6234 16.8169 16.537C17.4642 15.712 17.8735 14.6429 18.0543 13.2957C18.7964 13.7436 19.3464 14.333 19.6502 15.0415C20.1667 16.2459 20.1968 18.225 18.5819 19.8385C17.167 21.252 15.4663 21.8635 12.896 21.8824C10.0448 21.8613 7.88851 20.9469 6.48655 19.1646C5.17372 17.4958 4.49525 15.0852 4.46994 12C4.49525 8.91473 5.17372 6.5042 6.48655 4.83534C7.88851 3.05311 10.0448 2.13875 12.8959 2.11756C15.7678 2.13891 17.9617 3.05767 19.4173 4.8485C20.131 5.7267 20.6692 6.8311 21.0239 8.11879L23.0423 7.58028C22.6123 5.99528 21.9357 4.62946 21.0149 3.49675C19.1488 1.20084 16.4195 0.0243935 12.903 0H12.8889C9.37949 0.0243088 6.6808 1.20522 4.86782 3.50991C3.25452 5.5608 2.42234 8.41446 2.39437 11.9916L2.39429 12L2.39437 12.0084C2.42234 15.5855 3.25452 18.4393 4.86782 20.4901C6.6808 22.7948 9.37949 23.9757 12.8889 24H12.903C16.023 23.9784 18.2223 23.1615 20.034 21.3514C22.4044 18.9833 22.333 16.0149 21.5518 14.1926C20.9913 12.8859 19.9227 11.8245 18.4614 11.1235ZM13.0743 16.1884C11.7693 16.2619 10.4136 15.6761 10.3467 14.4215C10.2972 13.4913 11.0088 12.4533 13.1544 12.3296C13.4002 12.3154 13.6413 12.3085 13.8782 12.3085C14.6575 12.3085 15.3867 12.3842 16.0495 12.5291C15.8023 15.6169 14.352 16.1183 13.0743 16.1884Z" fill="black"/>
</svg>
