<svg width="24" height="24" viewBox="0 0 24 24" fill="none" xmlns="http://www.w3.org/2000/svg">
<path d="M23.6774 5.31338C23.3266 2.73468 21.0546 0.702487 18.3612 0.308702C17.9068 0.242162 16.1852 0 12.197 0H12.1672C8.17788 0 7.322 0.242162 6.8676 0.308702C4.24923 0.691579 1.85808 2.51761 1.27794 5.12683C0.998899 6.41181 0.96912 7.83643 1.02096 9.14323C1.09485 11.0173 1.10919 12.888 1.28125 14.7544C1.4002 15.9941 1.6077 17.224 1.9022 18.4348C2.45366 20.671 4.686 22.5319 6.87311 23.2911C9.21474 24.0829 11.733 24.2143 14.1458 23.6707C14.4113 23.6097 14.6738 23.5387 14.9333 23.458C15.519 23.2737 16.2061 23.0675 16.7113 22.7053C16.7182 22.7003 16.7239 22.6937 16.7279 22.6861C16.7319 22.6786 16.7341 22.6702 16.7344 22.6617V20.8532C16.7343 20.8452 16.7324 20.8373 16.7288 20.8302C16.7252 20.8231 16.7201 20.8168 16.7137 20.8119C16.7074 20.807 16.7 20.8035 16.6921 20.8018C16.6842 20.8001 16.6761 20.8001 16.6682 20.8019C15.1223 21.1671 13.5382 21.3502 11.9488 21.3473C9.21354 21.3473 8.47788 20.0634 8.2672 19.5289C8.09788 19.0669 7.99034 18.5851 7.94735 18.0956C7.94692 18.0873 7.94846 18.0791 7.95182 18.0716C7.95517 18.0641 7.96031 18.0574 7.96674 18.0522C7.9732 18.047 7.9808 18.0434 7.98892 18.0417C7.99705 18.0399 8.00548 18.0401 8.01354 18.0421C9.53369 18.4049 11.092 18.5879 12.6558 18.5875C13.0319 18.5875 13.4069 18.5875 13.783 18.5777C15.3558 18.5341 17.0134 18.4545 18.5609 18.1556C18.5995 18.1479 18.6381 18.1414 18.6712 18.1316C21.1119 17.668 23.4347 16.2128 23.6707 12.528C23.6796 12.3829 23.7016 11.0085 23.7016 10.858C23.7027 10.3464 23.8682 7.22886 23.6774 5.31338ZM19.9208 14.5079H17.3543V8.29021C17.3543 6.98123 16.8028 6.31366 15.6811 6.31366C14.448 6.31366 13.8304 7.10341 13.8304 8.66326V12.0666H11.2793V8.66326C11.2793 7.10341 10.6606 6.31366 9.42751 6.31366C8.31243 6.31366 7.75545 6.98123 7.75434 8.29021V14.5079H5.19003V8.1015C5.19003 6.79252 5.52791 5.75261 6.20363 4.98175C6.90068 4.21273 7.81502 3.81787 8.94994 3.81787C10.2635 3.81787 11.2562 4.31744 11.9179 5.31556L12.5565 6.37584L13.1962 5.31556C13.858 4.31744 14.8506 3.81787 16.162 3.81787C17.2958 3.81787 18.2101 4.21273 18.9094 4.98175C19.5851 5.75187 19.923 6.79178 19.923 8.1015L19.9208 14.5079Z" fill="black"/>
</svg>
