<svg xmlns="http://www.w3.org/2000/svg">
	<symbol id="letter-b" width="100" height="100" viewBox="0 0 100 100">
		<path d="M58.601,0H8.789v100h48.765h4.039c0.696,0,1.37-0.022,2.019-0.071c0.647-0.047,1.321-0.118,2.019-0.214
		c2.293-0.286,4.188-0.761,5.684-1.429c0.098,0,0.199-0.022,0.299-0.071c0.098-0.047,0.199-0.071,0.299-0.071
		c2.094-0.761,4.137-1.761,6.133-3c1.695-1.333,3.314-2.737,4.862-4.214c1.545-1.475,2.866-3.118,3.964-4.929
		c0.098-0.379,0.397-0.857,0.898-1.429c0.397-0.951,0.797-1.832,1.197-2.643c0.397-0.808,0.696-1.69,0.898-2.643
		c1.096-3.808,1.321-7.761,0.673-11.857c-0.65-4.094-2.12-7.714-4.413-10.857c-0.799-1.143-1.72-2.286-2.767-3.428
		c-1.047-1.143-2.12-2.094-3.216-2.857V50c3.49-2.665,6.208-5.929,8.153-9.786c1.945-3.857,2.917-7.976,2.917-12.357
		C91.01,19.192,87.67,12.239,81.189,7c-0.699-0.571-1.398-1.094-2.094-1.571C78.396,4.953,77.648,4.478,76.851,4
		c-0.598-0.379-1.222-0.714-1.87-1c-0.65-0.286-1.323-0.572-2.019-0.857C71.863,1.763,70.718,1.382,69.521,1
		c-1.197-0.379-2.244-0.618-3.141-0.714L63.687,0H58.601z M38.557,50.143l22.288,21.286H38.557V50.143L38.706,28h23.336
		L38.557,50.143z"/>
	</symbol>
	<symbol id="letter-x" width="100" height="100" viewBox="0 0 100 100">
		<path d="M38.964,0H2.704L31.87,50L2.704,100h36.102l11.036-18.714h0.315L61.036,100H96.98L67.972,50.143L97.296,0H61.509
		L50.158,19.286L38.964,0z"/>
	</symbol>
	<symbol id="letter-t" width="100" height="100" viewBox="0 0 100 100">
		<path d="M83.432,0H16.726l-4.258,28.429h21.92V100h31.539V28.429h21.604L83.432,0L83.432,0z"/>
	</symbol>
	<symbol id="letter-r" width="100" height="100" viewBox="0 0 100 100">
		<path d="M8.736,0v100h28.095V28.143h22.095L37.709,56.627L57.316,100h33.948L72.095,57.368l7.17-9.873
		c1.072-1.335,2.145-2.763,3.219-4.29c1.072-1.527,1.902-3.101,2.488-4.721c0.194-0.478,0.389-0.978,0.585-1.502
		c0.194-0.524,0.389-1.025,0.585-1.502c1.072-4.004,1.267-8.058,0.585-12.161c-0.684-4.1-2.245-7.819-4.682-11.158
		c-2.732-3.719-6.098-6.58-10.096-8.585c-1.367-0.665-2.684-1.239-3.951-1.716c-1.075-0.38-2.172-0.714-3.292-1
		c-1.123-0.286-2.268-0.478-3.439-0.574c-0.489,0.096-0.976,0.049-1.463-0.143c-0.489-0.19-0.976-0.19-1.463,0
		C58.144,0.049,57.755,0,57.17,0H8.736z"/>
	</symbol>
</svg>