<svg xmlns="http://www.w3.org/2000/svg" width="423.609" height="488.365" viewBox="0 0 423.609 488.365"><g id="hex" stroke-miterlimit="10" fill="none"><path d="M211.588 248.208l-3.134-1.783-.282-3.99 2.85-2.207 3.135 1.783.282 3.99zM211.588 248.208l-3.134-1.783-.282-3.99 2.85-2.207 3.135 1.783.282 3.99z"/><path stroke-width=".5" d="M208.953 246.39l-.486-3.573 2.852-2.207 3.336 1.365.485 3.573-2.85 2.207zM208.953 246.39l-.486-3.573 2.852-2.207 3.336 1.365.485 3.573-2.85 2.207zM208.953 246.39l-.486-3.573 2.852-2.207 3.336 1.365.485 3.573-2.85 2.207zM208.953 246.39l-.486-3.573 2.852-2.207 3.336 1.365.485 3.573-2.85 2.207zM208.953 246.39l-.486-3.573 2.852-2.207 3.336 1.365.485 3.573-2.85 2.207zM208.953 246.39l-.486-3.573 2.852-2.207 3.336 1.365.485 3.573-2.85 2.207z"/><path d="M211.588 248.208l-3.134-1.783-.282-3.99 2.85-2.207 3.135 1.783.282 3.99z"/><path stroke-width=".5" d="M200.117 249.02l1.654-12.54 11.688-4.838 10.034 7.703-1.654 12.54-11.688 4.838zM200.117 249.02l1.654-12.54 11.688-4.838 10.034 7.703-1.654 12.54-11.688 4.838zM201.53 268.97l-16.33-21.292 10.275-24.787 26.604-3.495 16.328 21.29-10.274 24.79zM201.53 268.97l-16.33-21.292 10.275-24.787 26.604-3.495 16.328 21.29-10.274 24.79zM201.53 268.97l-16.33-21.292 10.275-24.787 26.604-3.495 16.328 21.29-10.274 24.79zM201.53 268.97l-16.33-21.292 10.275-24.787 26.604-3.495 16.328 21.29-10.274 24.79zM201.53 268.97l-16.33-21.292 10.275-24.787 26.604-3.495 16.328 21.29-10.274 24.79zM201.53 268.97l-16.33-21.292 10.275-24.787 26.604-3.495 16.328 21.29-10.274 24.79zM198.53 283.218l-27.17-31.015 13.276-39.035 40.444-8.02 27.168 31.013-13.276 39.037zM198.53 283.218l-27.17-31.015 13.276-39.035 40.444-8.02 27.168 31.013-13.276 39.037zM198.53 283.218l-27.17-31.015 13.276-39.035 40.444-8.02 27.168 31.013-13.276 39.037zM195.246 293.475l-34.41-38.986 16.56-49.294 50.967-10.307 34.41 38.986-16.56 49.293zM195.246 293.475l-34.41-38.986 16.56-49.294 50.967-10.307 34.41 38.986-16.56 49.293zM195.246 293.475l-34.41-38.986 16.56-49.294 50.967-10.307 34.41 38.986-16.56 49.293zM195.246 293.475l-34.41-38.986 16.56-49.294 50.967-10.307 34.41 38.986-16.56 49.293zM194.24 307.582l-46.123-46.91 17.564-63.4 63.69-16.49 46.122 46.912-17.564 63.4zM194.24 307.582l-46.123-46.91 17.564-63.4 63.69-16.49 46.122 46.912-17.564 63.4zM194.24 307.582l-46.123-46.91 17.564-63.4 63.69-16.49 46.122 46.912-17.564 63.4zM194.946 317.557L139.83 266.27l16.86-73.374 71.972-22.088 55.116 51.287-16.86 73.374zM194.946 317.557L139.83 266.27l16.86-73.374 71.972-22.088 55.116 51.287-16.86 73.374zM194.946 317.557L139.83 266.27l16.86-73.374 71.972-22.088 55.116 51.287-16.86 73.374zM194.946 317.557L139.83 266.27l16.86-73.374 71.972-22.088 55.116 51.287-16.86 73.374zM195.653 327.532l-64.107-55.663 16.15-83.35 80.26-27.687 64.107 55.662-16.152 83.35zM195.653 327.532l-64.107-55.663 16.15-83.35 80.26-27.687 64.107 55.662-16.152 83.35zM195.653 327.532l-64.107-55.663 16.15-83.35 80.26-27.687 64.107 55.662-16.152 83.35zM195.653 327.532l-64.107-55.663 16.15-83.35 80.26-27.687 64.107 55.662-16.152 83.35zM195.653 327.532l-64.107-55.663 16.15-83.35 80.26-27.687 64.107 55.662-16.152 83.35zM200.35 337.224l-74.85-56.44 11.455-93.043 86.304-36.6 74.848 56.442-11.455 93.042zM200.35 337.224l-74.85-56.44 11.455-93.043 86.304-36.6 74.848 56.442-11.455 93.042zM200.35 337.224l-74.85-56.44 11.455-93.043 86.304-36.6 74.848 56.442-11.455 93.042zM200.35 337.224l-74.85-56.44 11.455-93.043 86.304-36.6 74.848 56.442-11.455 93.042zM215.787 346.156l-90.303-47.538-3.982-101.973 86.32-54.436 90.303 47.537 3.982 101.973zM215.787 346.156l-90.303-47.538-3.982-101.973 86.32-54.436 90.303 47.537 3.982 101.973zM215.787 346.156l-90.303-47.538-3.982-101.973 86.32-54.436 90.303 47.537 3.982 101.973zM215.787 346.156l-90.303-47.538-3.982-101.973 86.32-54.436 90.303 47.537 3.982 101.973zM222.71 355.69l-102.022-46.31-10.905-111.507 91.116-65.2 102.02 46.31 10.906 111.51zM222.71 355.69l-102.022-46.31-10.905-111.507 91.116-65.2 102.02 46.31 10.906 111.51zM222.71 355.69l-102.022-46.31-10.905-111.507 91.116-65.2 102.02 46.31 10.906 111.51zM222.71 355.69l-102.022-46.31-10.905-111.507 91.116-65.2 102.02 46.31 10.906 111.51zM234.39 364.888L118.56 324.094 95.978 203.388l93.242-79.912 115.827 40.795 22.584 120.707zM234.39 364.888L118.56 324.094 95.978 203.388l93.242-79.912 115.827 40.795 22.584 120.707zM234.39 364.888L118.56 324.094 95.978 203.388l93.242-79.912 115.827 40.795 22.584 120.707zM234.39 364.888L118.56 324.094 95.978 203.388l93.242-79.912 115.827 40.795 22.584 120.707zM248.778 369.884l-127.348-30.83L84.457 213.35l90.374-94.87 127.35 30.832 36.972 125.7zM248.778 369.884l-127.348-30.83L84.457 213.35l90.374-94.87 127.35 30.832 36.972 125.7zM248.778 369.884l-127.348-30.83L84.457 213.35l90.374-94.87 127.35 30.832 36.972 125.7zM263.167 374.88l-138.87-20.868-51.36-130.697 87.505-109.83 138.87 20.867 51.36 130.698zM263.167 374.88l-138.87-20.868-51.36-130.697 87.505-109.83 138.87 20.867 51.36 130.698zM263.167 374.88l-138.87-20.868-51.36-130.697 87.505-109.83 138.87 20.867 51.36 130.698zM283.4 377.457l-151.217-4.634-71.595-133.275 79.62-128.64 151.218 4.634 71.595 133.275zM283.4 377.457l-151.217-4.634-71.595-133.275 79.62-128.64 151.218 4.634 71.595 133.275zM283.4 377.457l-151.217-4.634-71.595-133.275 79.62-128.64 151.218 4.634 71.595 133.275zM305.486 377.898L142.844 392.17l-93.68-133.715 68.96-147.988 162.64-14.273 93.682 133.716zM305.486 377.898L142.844 392.17l-93.68-133.715 68.96-147.988 162.64-14.273 93.682 133.716zM321.446 376.767l-169.643 28.66-109.64-132.585 60-161.245 169.643-28.66 109.64 132.586zM321.446 376.767l-169.643 28.66-109.64-132.585 60-161.245 169.643-28.66 109.64 132.586zM335.41 375.778l-175.768 41.25L36.036 285.43l52.162-172.843 175.77-41.25 123.605 131.597zM335.41 375.778l-175.768 41.25L36.036 285.43l52.162-172.843 175.77-41.25 123.605 131.597zM344.79 374.993l-179.778 49.764-132.986-130.81 46.792-180.575 179.78-49.764 132.985 130.81zM344.79 374.993l-179.778 49.764-132.986-130.81 46.792-180.575 179.78-49.764 132.985 130.81zM344.79 374.993l-179.778 49.764-132.986-130.81 46.792-180.575 179.78-49.764 132.985 130.81zM356.016 374.98l-185.38 59.492L26.424 303.675l41.17-190.29 185.38-59.493 144.21 130.798zM356.016 374.98l-185.38 59.492L26.424 303.675l41.17-190.29 185.38-59.493 144.21 130.798zM365.37 374.97l-190.047 67.598L21.756 311.78l36.482-198.384 190.048-67.6 153.566 130.787zM365.37 374.97l-190.047 67.598L21.756 311.78l36.482-198.384 190.048-67.6 153.566 130.787zM376.596 374.956l-195.65 77.327L16.157 321.51l30.856-208.1 195.65-77.328 164.792 130.773zM376.596 374.956l-195.65 77.327L16.157 321.51l30.856-208.1 195.65-77.328 164.792 130.773zM376.596 374.956l-195.65 77.327L16.157 321.51l30.856-208.1 195.65-77.328 164.792 130.773zM389.693 374.94L187.508 463.62 9.62 332.858l24.296-219.434L236.1 24.747l177.89 130.76zM389.693 374.94L187.508 463.62 9.62 332.858l24.296-219.434L236.1 24.747l177.89 130.76zM389.693 374.94L187.508 463.62 9.62 332.858l24.296-219.434L236.1 24.747l177.89 130.76zM402.785 371.184L197.308 473.077 6.328 346.075 20.823 117.18 226.3 15.29l190.98 127zM402.785 371.184L197.308 473.077 6.328 346.075 20.823 117.18 226.3 15.29l190.98 127zM402.785 371.184L197.308 473.077 6.328 346.075 20.823 117.18 226.3 15.29l190.98 127zM414.008 369.3L204.55 481.855 2.348 356.737 9.6 119.065 219.06 6.51 421.26 131.628zM414.008 369.3L204.55 481.855 2.348 356.737 9.6 119.065 219.06 6.51 421.26 131.628zM414.008 369.3L204.55 481.855 2.348 356.737 9.6 119.065 219.06 6.51 421.26 131.628zM414.008 369.3L204.55 481.855 2.348 356.737 9.6 119.065 219.06 6.51 421.26 131.628zM414.008 369.3L204.55 481.855 2.348 356.737 9.6 119.065 219.06 6.51 421.26 131.628zM414.008 369.3L204.55 481.855 2.348 356.737 9.6 119.065 219.06 6.51 421.26 131.628zM423.358 365.548L212.476 488.076.922 366.71.25 122.818 211.133.29l211.554 121.364zM423.358 365.548L212.476 488.076.922 366.71.25 122.818 211.133.29l211.554 121.364zM423.358 365.548L212.476 488.076.922 366.71.25 122.818 211.133.29l211.554 121.364zM423.358 365.548L212.476 488.076.922 366.71.25 122.818 211.133.29l211.554 121.364z"/></g></svg>