<svg xmlns="http://www.w3.org/2000/svg">
  <symbol id="hex-symbol" width="424" height="488" viewBox="0 0 424 488"><path id="hex" stroke-width=".5" stroke-miterlimit="10" fill="none" d="M209.4 246.491l-.486-3.566 2.851-2.202 3.336 1.363.485 3.566-2.85 2.202zM209.4 246.491l-.486-3.566 2.851-2.202 3.336 1.363.485 3.566-2.85 2.202zM209.4 246.491l-.486-3.566 2.851-2.202 3.336 1.363.485 3.566-2.85 2.202zM200.566 249.117l1.654-12.516 11.684-4.829 10.031 7.688-1.654 12.516-11.684 4.829zM200.566 249.117l1.654-12.516 11.684-4.829 10.031 7.688-1.654 12.516-11.684 4.829zM201.979 269.029l-16.326-21.251 10.272-24.74 26.597-3.49 16.326 21.251-10.272 24.74zM201.979 269.029l-16.326-21.251 10.272-24.74 26.597-3.49 16.326 21.251-10.272 24.74zM201.979 269.029l-16.326-21.251 10.272-24.74 26.597-3.49 16.326 21.251-10.272 24.74zM201.979 269.029l-16.326-21.251 10.272-24.74 26.597-3.49 16.326 21.251-10.272 24.74zM201.979 269.029l-16.326-21.251 10.272-24.74 26.597-3.49 16.326 21.251-10.272 24.74zM201.979 269.029l-16.326-21.251 10.272-24.74 26.597-3.49 16.326 21.251-10.272 24.74zM198.979 283.249l-27.162-30.955 13.272-38.96 40.433-8.006 27.161 30.955-13.271 38.96zM198.979 283.249l-27.162-30.955 13.272-38.96 40.433-8.006 27.161 30.955-13.271 38.96zM198.979 283.249l-27.162-30.955 13.272-38.96 40.433-8.006 27.161 30.955-13.271 38.96zM195.696 293.487l-34.401-38.912 16.554-49.198 50.956-10.287 34.401 38.912-16.555 49.198zM195.696 293.487l-34.401-38.912 16.554-49.198 50.956-10.287 34.401 38.912-16.555 49.198zM195.696 293.487l-34.401-38.912 16.554-49.198 50.956-10.287 34.401 38.912-16.555 49.198zM195.696 293.487l-34.401-38.912 16.554-49.198 50.956-10.287 34.401 38.912-16.555 49.198zM194.69 307.566l-46.111-46.821 17.56-63.277 63.672-16.457 46.111 46.821-17.56 63.277zM194.69 307.566l-46.111-46.821 17.56-63.277 63.672-16.457 46.111 46.821-17.56 63.277zM194.69 307.566l-46.111-46.821 17.56-63.277 63.672-16.457 46.111 46.821-17.56 63.277zM195.397 317.522l-55.101-51.188 16.853-73.234 71.955-22.045 55.101 51.188-16.854 73.234zM195.397 317.522l-55.101-51.188 16.853-73.234 71.955-22.045 55.101 51.188-16.854 73.234zM195.397 317.522l-55.101-51.188 16.853-73.234 71.955-22.045 55.101 51.188-16.854 73.234zM195.397 317.522l-55.101-51.188 16.853-73.234 71.955-22.045 55.101 51.188-16.854 73.234zM196.103 327.478l-64.091-55.556 16.148-83.189 80.238-27.634 64.09 55.556-16.147 83.189zM196.103 327.478l-64.091-55.556 16.148-83.189 80.238-27.634 64.09 55.556-16.147 83.189zM196.103 327.478l-64.091-55.556 16.148-83.189 80.238-27.634 64.09 55.556-16.147 83.189zM196.103 327.478l-64.091-55.556 16.148-83.189 80.238-27.634 64.09 55.556-16.147 83.189zM196.103 327.478l-64.091-55.556 16.148-83.189 80.238-27.634 64.09 55.556-16.147 83.189zM200.798 337.151l-74.83-56.332 11.452-92.863 86.283-36.53 74.83 56.332-11.453 92.863zM200.798 337.151l-74.83-56.332 11.452-92.863 86.283-36.53 74.83 56.332-11.453 92.863zM200.798 337.151l-74.83-56.332 11.452-92.863 86.283-36.53 74.83 56.332-11.453 92.863zM200.798 337.151l-74.83-56.332 11.452-92.863 86.283-36.53 74.83 56.332-11.453 92.863zM216.232 346.066l-90.28-47.446-3.981-101.778 86.298-54.331 90.28 47.447 3.981 101.777zM216.232 346.066l-90.28-47.446-3.981-101.778 86.298-54.331 90.28 47.447 3.981 101.777zM216.232 346.066l-90.28-47.446-3.981-101.778 86.298-54.331 90.28 47.447 3.981 101.777zM216.232 346.066l-90.28-47.446-3.981-101.778 86.298-54.331 90.28 47.447 3.981 101.777zM223.153 355.582l-101.996-46.22-10.902-111.294 91.093-65.073 101.995 46.22 10.903 111.294zM223.153 355.582l-101.996-46.22-10.902-111.294 91.093-65.073 101.995 46.22 10.903 111.294zM223.153 355.582l-101.996-46.22-10.902-111.294 91.093-65.073 101.995 46.22 10.903 111.294zM223.153 355.582l-101.996-46.22-10.902-111.294 91.093-65.073 101.995 46.22 10.903 111.294zM234.829 364.762l-115.797-40.715-22.579-120.474 93.219-79.758 115.797 40.716 22.579 120.473zM234.829 364.762l-115.797-40.715-22.579-120.474 93.219-79.758 115.797 40.716 22.579 120.473zM234.829 364.762l-115.797-40.715-22.579-120.474 93.219-79.758 115.797 40.716 22.579 120.473zM234.829 364.762l-115.797-40.715-22.579-120.474 93.219-79.758 115.797 40.716 22.579 120.473zM249.214 369.749l-127.315-30.772-36.964-125.46 90.351-94.689 127.316 30.772 36.964 125.46zM249.214 369.749l-127.315-30.772-36.964-125.46 90.351-94.689 127.316 30.772 36.964 125.46zM249.214 369.749l-127.315-30.772-36.964-125.46 90.351-94.689 127.316 30.772 36.964 125.46zM263.6 374.735l-138.834-20.828-51.349-130.446 87.484-109.619 138.833 20.828 51.35 130.446zM263.6 374.735l-138.834-20.828-51.349-130.446 87.484-109.619 138.833 20.828 51.35 130.446zM263.6 374.735l-138.834-20.828-51.349-130.446 87.484-109.619 138.833 20.828 51.35 130.446zM283.827 377.307l-151.178-4.625-71.577-133.019 79.602-128.393 151.178 4.626 71.577 133.018zM283.827 377.307l-151.178-4.625-71.577-133.019 79.602-128.393 151.178 4.626 71.577 133.018zM283.827 377.307l-151.178-4.625-71.577-133.019 79.602-128.393 151.178 4.626 71.577 133.018zM305.908 377.747l-162.6 14.245-93.658-133.458 68.943-147.704 162.6-14.245 93.657 133.458zM305.908 377.747l-162.6 14.245-93.658-133.458 68.943-147.704 162.6-14.245 93.657 133.458zM321.864 376.618l-169.6 28.605-109.613-132.33 59.986-160.934 169.599-28.605 109.614 132.33zM321.864 376.618l-169.6 28.605-109.613-132.33 59.986-160.934 169.599-28.605 109.614 132.33zM335.825 375.631l-175.723 41.169-123.575-131.342 52.149-172.512 175.723-41.169 123.575 131.343zM335.825 375.631l-175.723 41.169-123.575-131.342 52.149-172.512 175.723-41.169 123.575 131.343zM345.203 374.848l-179.733 49.668-132.952-130.559 46.78-180.227 179.733-49.669 132.952 130.559zM345.203 374.848l-179.733 49.668-132.952-130.559 46.78-180.227 179.733-49.669 132.952 130.559zM345.203 374.848l-179.733 49.668-132.952-130.559 46.78-180.227 179.733-49.669 132.952 130.559zM356.425 374.835l-185.332 59.377-144.175-130.546 41.157-189.923 185.333-59.378 144.175 130.546zM356.425 374.835l-185.332 59.377-144.175-130.546 41.157-189.923 185.333-59.378 144.175 130.546zM365.778 374.824l-190 67.469-153.527-130.536 36.472-198.004 190-67.469 153.527 130.536zM365.778 374.824l-190 67.469-153.527-130.536 36.472-198.004 190-67.469 153.527 130.536zM377 374.811l-195.599 77.178-164.75-130.522 30.85-207.701 195.599-77.178 164.75 130.522zM377 374.811l-195.599 77.178-164.75-130.522 30.85-207.701 195.599-77.178 164.75 130.522zM377 374.811l-195.599 77.178-164.75-130.522 30.85-207.701 195.599-77.178 164.75 130.522zM390.093 374.796l-202.133 88.506-177.843-130.508 24.29-219.013 202.133-88.505 177.843 130.507zM390.093 374.796l-202.133 88.506-177.843-130.508 24.29-219.013 202.133-88.505 177.843 130.507zM390.093 374.796l-202.133 88.506-177.843-130.508 24.29-219.013 202.133-88.505 177.843 130.507zM403.182 371.046l-205.424 101.697-190.932-126.757 14.493-228.455 205.424-101.697 190.932 126.758zM403.182 371.046l-205.424 101.697-190.932-126.757 14.493-228.455 205.424-101.697 190.932 126.758zM403.182 371.046l-205.424 101.697-190.932-126.757 14.493-228.455 205.424-101.697 190.932 126.758zM414.403 369.166l-209.404 112.338-202.152-124.877 7.251-237.216 209.404-112.338 202.152 124.877zM414.403 369.166l-209.404 112.338-202.152-124.877 7.251-237.216 209.404-112.338 202.152 124.877zM414.403 369.166l-209.404 112.338-202.152-124.877 7.251-237.216 209.404-112.338 202.152 124.877zM414.403 369.166l-209.404 112.338-202.152-124.877 7.251-237.216 209.404-112.338 202.152 124.877zM414.403 369.166l-209.404 112.338-202.152-124.877 7.251-237.216 209.404-112.338 202.152 124.877zM414.403 369.166l-209.404 112.338-202.152-124.877 7.251-237.216 209.404-112.338 202.152 124.877zM423.75 365.42l-210.828 122.293-211.5-121.132-.672-243.424 210.829-122.293 211.5 121.132zM423.75 365.42l-210.828 122.293-211.5-121.132-.672-243.424 210.829-122.293 211.5 121.132zM423.75 365.42l-210.828 122.293-211.5-121.132-.672-243.424 210.829-122.293 211.5 121.132zM423.75 365.42l-210.828 122.293-211.5-121.132-.672-243.424 210.829-122.293 211.5 121.132z"/></symbol>
</svg>