<svg xmlns="http://www.w3.org/2000/svg">
  <symbol id="icon-twitter" width="60" height="60" viewBox="0 0 60 60"><path d="M51.014 24.781v1.26c0 14.49-10.89 30.959-30.779 30.959-6.12 0-11.79-1.8-16.649-4.95.81.089 1.709.089 2.61.089 5.04 0 9.72-1.62 13.41-4.589-4.77-.091-8.73-3.24-10.08-7.56.72.18 1.26.27 1.98.27 1.08 0 1.98-.179 2.88-.359-4.95-1.081-8.73-5.401-8.73-10.62v-.089c1.44.719 3.06 1.26 5.04 1.26-3.06-1.89-4.86-5.221-4.86-9 0-2.07.54-3.87 1.44-5.49 5.399 6.661 13.319 10.98 22.319 11.339-.18-.719-.27-1.619-.27-2.339 0-6.029 4.86-10.979 10.8-10.979 3.24 0 5.94 1.349 7.92 3.419 2.43-.359 4.86-1.44 6.93-2.52-.9 2.43-2.52 4.5-4.77 5.94 2.25-.27 4.32-.899 6.21-1.709-1.441 2.069-3.331 4.048-5.401 5.668z"/></symbol>
  <symbol id="icon-linkedin" width="60" height="60" viewBox="0 0 60 60"><path d="M19.426 12.272c0 3.42-2.79 6.209-6.209 6.209-3.42 0-6.12-2.79-6.12-6.209s2.7-6.3 6.12-6.3c3.419 0 6.209 2.88 6.209 6.3zm-11.25 44.728v-34.829h10.08v34.829h-10.08zm25.019-34.829v1.62c3.869-1.98 9.179-1.62 12.959.36 4.05 2.25 6.749 7.11 6.749 11.61v21.239h-9.899v-21.239c0-.99-.899-2.61-1.709-2.88-3.96-2.25-8.1 1.799-8.1 1.799v22.32h-10.08v-34.829h10.08z"/></symbol>
  <symbol id="icon-mail" width="60" height="60" viewBox="0 0 60 60"><path d="M30 44l-27-20v33h54v-33zM57 21h-54l27 20z"/></symbol>
  <symbol id="icon-rss" width="60" height="60" viewBox="0 0 60 60"><path d="M51.423,57h-8.205c0-19.074-15.565-34.641-34.641-34.641v-8.205C32.21,14.154,51.423,33.367,51.423,57z M36.909,57h-8.348 c0-5.33-2.033-10.378-5.818-14.166c-3.786-3.786-8.833-5.958-14.166-5.958v-8.205C24.147,28.671,36.909,41.432,36.909,57z M19.939,51.319c0,3.158-2.524,5.681-5.681,5.681s-5.681-2.524-5.681-5.681c0-3.155,2.524-5.678,5.681-5.678 S19.939,48.164,19.939,51.319z"/></symbol>
</svg>